<svg width="1920" height="427" viewBox="0 0 1920 427" fill="none" xmlns="http://www.w3.org/2000/svg">
<g clip-path="url(#clip0_643_159)">
<mask id="path-1-inside-1_643_159" fill="white">
<path d="M0 170.8V85.4H49.2V298.9H98.4V341.6H147.733V170.8H196.933V256.2H246.133V42.7H295.333V298.9H344.667V213.5H393.867V298.9H443.067H492.267V213.5H541.6V128.1H590.8V213.5H640H689.2V384.3H738.4V298.9H787.733V384.3H836.933V298.9H886.133V170.8H935.333V341.6H984.667V298.9H1033.87V341.6H1083.07H1132.27V213.5H1181.6H1230.8H1280V85.4H1329.2V128.1H1378.4V298.9H1427.73V384.3H1476.93V256.2H1526.13H1575.33V384.3H1624.67V427H1673.87V384.3H1723.07V0H1772.27V341.6H1821.6V170.8H1870.8V42.7H1920V427H1870.8H1821.6H1772.27H1723.07H1673.87H1624.67H1575.33H1526.13H1476.93H1427.73H1378.4H1329.2H1280H1230.8H1181.6H1132.27H1083.07H1033.87H984.667H935.333H886.133H836.933H787.733H738.4H689.2H640H590.8H541.6H492.267H443.067H393.867H344.667H295.333H246.133H196.933H147.733H98.4H49.2H0V170.8Z"/>
</mask>
<path d="M1624.67 427.5H1673.87V426.5H1624.67V427.5ZM0 85.4V84.4H-1V85.4H0ZM49.2 85.4H50.2V84.4H49.2V85.4ZM49.2 298.9H48.2V299.9H49.2V298.9ZM98.4 298.9H99.4V297.9H98.4V298.9ZM98.4 341.6H97.4V342.6H98.4V341.6ZM147.733 341.6V342.6H148.733V341.6H147.733ZM147.733 170.8V169.8H146.733V170.8H147.733ZM196.933 170.8H197.933V169.8H196.933V170.8ZM196.933 256.2H195.933V257.2H196.933V256.2ZM246.133 256.2V257.2H247.133V256.2H246.133ZM246.133 42.7V41.7H245.133V42.7H246.133ZM295.333 42.7H296.333V41.7H295.333V42.7ZM295.333 298.9H294.333V299.9H295.333V298.9ZM344.667 298.9V299.9H345.667V298.9H344.667ZM344.667 213.5V212.5H343.667V213.5H344.667ZM393.867 213.5H394.867V212.5H393.867V213.5ZM393.867 298.9H392.867V299.9H393.867V298.9ZM492.267 298.9V299.9H493.267V298.9H492.267ZM492.267 213.5V212.5H491.267V213.5H492.267ZM541.6 213.5V214.5H542.6V213.5H541.6ZM541.6 128.1V127.1H540.6V128.1H541.6ZM590.8 128.1H591.8V127.1H590.8V128.1ZM590.8 213.5H589.8V214.5H590.8V213.5ZM689.2 213.5H690.2V212.5H689.2V213.5ZM689.2 384.3H688.2V385.3H689.2V384.3ZM738.4 384.3V385.3H739.4V384.3H738.4ZM738.4 298.9V297.9H737.4V298.9H738.4ZM787.733 298.9H788.733V297.9H787.733V298.9ZM787.733 384.3H786.733V385.3H787.733V384.3ZM836.933 384.3V385.3H837.933V384.3H836.933ZM836.933 298.9V297.9H835.933V298.9H836.933ZM886.133 298.9V299.9H887.133V298.9H886.133ZM886.133 170.8V169.8H885.133V170.8H886.133ZM935.333 170.8H936.333V169.8H935.333V170.8ZM935.333 341.6H934.333V342.6H935.333V341.6ZM984.667 341.6V342.6H985.667V341.6H984.667ZM984.667 298.9V297.9H983.667V298.9H984.667ZM1033.87 298.9H1034.87V297.9H1033.87V298.9ZM1033.87 341.6H1032.87V342.6H1033.87V341.6ZM1132.27 341.6V342.6H1133.27V341.6H1132.27ZM1132.27 213.5V212.5H1131.27V213.5H1132.27ZM1280 213.5V214.5H1281V213.5H1280ZM1280 85.4V84.4H1279V85.4H1280ZM1329.2 85.4H1330.2V84.4H1329.2V85.4ZM1329.2 128.1H1328.2V129.1H1329.2V128.1ZM1378.4 128.1H1379.4V127.1H1378.4V128.1ZM1378.4 298.9H1377.4V299.9H1378.4V298.9ZM1427.73 298.9H1428.73V297.9H1427.73V298.9ZM1427.73 384.3H1426.73V385.3H1427.73V384.3ZM1476.93 384.3V385.3H1477.93V384.3H1476.93ZM1476.93 256.2V255.2H1475.93V256.2H1476.93ZM1575.33 256.2H1576.33V255.2H1575.33V256.2ZM1575.33 384.3H1574.33V385.3H1575.33V384.3ZM1624.67 384.3H1625.67V383.3H1624.67V384.3ZM1624.67 427V428H1625.67V427H1624.67ZM1673.87 427H1672.87V428H1673.87V427ZM1673.87 384.3V383.3H1672.87V384.3H1673.87ZM1723.07 384.3V385.3H1724.07V384.3H1723.07ZM1723.07 0V-1H1722.07V0H1723.07ZM1772.27 0H1773.27V-1H1772.27V0ZM1772.27 341.6H1771.27V342.6H1772.27V341.6ZM1821.6 341.6V342.6H1822.6V341.6H1821.6ZM1821.6 170.8V169.8H1820.6V170.8H1821.6ZM1870.8 170.8V171.8H1871.8V170.8H1870.8ZM1870.8 42.7V41.7H1869.8V42.7H1870.8ZM1920 42.7H1921V41.7H1920V42.7ZM1920 427V428H1921V427H1920ZM0 427H-1V428H0V427ZM1 170.8V85.4H-1V170.8H1ZM0 86.4H49.2V84.4H0V86.4ZM48.2 85.4V298.9H50.2V85.4H48.2ZM49.2 299.9H98.4V297.9H49.2V299.9ZM97.4 298.9V341.6H99.4V298.9H97.4ZM98.4 342.6H147.733V340.6H98.4V342.6ZM148.733 341.6V170.8H146.733V341.6H148.733ZM147.733 171.8H196.933V169.8H147.733V171.8ZM195.933 170.8V256.2H197.933V170.8H195.933ZM196.933 257.2H246.133V255.2H196.933V257.2ZM247.133 256.2V42.7H245.133V256.2H247.133ZM246.133 43.7H295.333V41.7H246.133V43.7ZM294.333 42.7V298.9H296.333V42.7H294.333ZM295.333 299.9H344.667V297.9H295.333V299.9ZM345.667 298.9V213.5H343.667V298.9H345.667ZM344.667 214.5H393.867V212.5H344.667V214.5ZM392.867 213.5V298.9H394.867V213.5H392.867ZM393.867 299.9H443.067V297.9H393.867V299.9ZM443.067 299.9H492.267V297.9H443.067V299.9ZM493.267 298.9V213.5H491.267V298.9H493.267ZM492.267 214.5H541.6V212.5H492.267V214.5ZM542.6 213.5V128.1H540.6V213.5H542.6ZM541.6 129.1H590.8V127.1H541.6V129.1ZM589.8 128.1V213.5H591.8V128.1H589.8ZM590.8 214.5H640V212.5H590.8V214.5ZM640 214.5H689.2V212.5H640V214.5ZM688.2 213.5V384.3H690.2V213.5H688.2ZM689.2 385.3H738.4V383.3H689.2V385.3ZM739.4 384.3V298.9H737.4V384.3H739.4ZM738.4 299.9H787.733V297.9H738.4V299.9ZM786.733 298.9V384.3H788.733V298.9H786.733ZM787.733 385.3H836.933V383.3H787.733V385.3ZM837.933 384.3V298.9H835.933V384.3H837.933ZM836.933 299.9H886.133V297.9H836.933V299.9ZM887.133 298.9V170.8H885.133V298.9H887.133ZM886.133 171.8H935.333V169.8H886.133V171.8ZM934.333 170.8V341.6H936.333V170.8H934.333ZM935.333 342.6H984.667V340.6H935.333V342.6ZM985.667 341.6V298.9H983.667V341.6H985.667ZM984.667 299.9H1033.87V297.9H984.667V299.9ZM1032.87 298.9V341.6H1034.87V298.9H1032.87ZM1033.87 342.6H1083.07V340.6H1033.87V342.6ZM1083.07 342.6H1132.27V340.6H1083.07V342.6ZM1133.27 341.6V213.5H1131.27V341.6H1133.27ZM1132.27 214.5H1181.6V212.5H1132.27V214.5ZM1181.6 214.5H1230.8V212.5H1181.6V214.5ZM1230.8 214.5H1280V212.5H1230.8V214.5ZM1281 213.5V85.4H1279V213.5H1281ZM1280 86.4H1329.2V84.4H1280V86.4ZM1328.2 85.4V128.1H1330.2V85.4H1328.2ZM1329.2 129.1H1378.4V127.1H1329.2V129.1ZM1377.4 128.1V298.9H1379.4V128.1H1377.4ZM1378.4 299.9H1427.73V297.9H1378.4V299.9ZM1426.73 298.9V384.3H1428.73V298.9H1426.73ZM1427.73 385.3H1476.93V383.3H1427.73V385.3ZM1477.93 384.3V256.2H1475.93V384.3H1477.93ZM1476.93 257.2H1526.13V255.2H1476.93V257.2ZM1526.13 257.2H1575.33V255.2H1526.13V257.2ZM1574.33 256.2V384.3H1576.33V256.2H1574.33ZM1575.33 385.3H1624.67V383.3H1575.33V385.3ZM1623.67 384.3V427H1625.67V384.3H1623.67ZM1674.87 427V384.3H1672.87V427H1674.87ZM1673.87 385.3H1723.07V383.3H1673.87V385.3ZM1724.07 384.3V0H1722.07V384.3H1724.07ZM1723.07 1H1772.27V-1H1723.07V1ZM1771.27 0V341.6H1773.27V0H1771.27ZM1772.27 342.6H1821.6V340.6H1772.27V342.6ZM1822.6 341.6V170.8H1820.6V341.6H1822.6ZM1821.6 171.8H1870.8V169.8H1821.6V171.8ZM1871.8 170.8V42.7H1869.8V170.8H1871.8ZM1870.8 43.7H1920V41.7H1870.8V43.7ZM1919 42.7V427H1921V42.7H1919ZM1920 426H1870.8V428H1920V426ZM1870.8 426H1821.6V428H1870.8V426ZM1821.6 426H1772.27V428H1821.6V426ZM1772.27 426H1723.07V428H1772.27V426ZM1723.07 426H1673.87V428H1723.07V426ZM1624.67 426H1575.33V428H1624.67V426ZM1575.33 426H1526.13V428H1575.33V426ZM1526.13 426H1476.93V428H1526.13V426ZM1476.93 426H1427.73V428H1476.93V426ZM1427.73 426H1378.4V428H1427.73V426ZM1378.4 426H1329.2V428H1378.4V426ZM1329.2 426H1280V428H1329.2V426ZM1280 426H1230.8V428H1280V426ZM1230.8 426H1181.6V428H1230.8V426ZM1181.6 426H1132.27V428H1181.6V426ZM1132.27 426H1083.07V428H1132.27V426ZM1083.07 426H1033.87V428H1083.07V426ZM1033.87 426H984.667V428H1033.87V426ZM984.667 426H935.333V428H984.667V426ZM935.333 426H886.133V428H935.333V426ZM886.133 426H836.933V428H886.133V426ZM836.933 426H787.733V428H836.933V426ZM787.733 426H738.4V428H787.733V426ZM738.4 426H689.2V428H738.4V426ZM689.2 426H640V428H689.2V426ZM640 426H590.8V428H640V426ZM590.8 426H541.6V428H590.8V426ZM541.6 426H492.267V428H541.6V426ZM492.267 426H443.067V428H492.267V426ZM443.067 426H393.867V428H443.067V426ZM393.867 426H344.667V428H393.867V426ZM344.667 426H295.333V428H344.667V426ZM295.333 426H246.133V428H295.333V426ZM246.133 426H196.933V428H246.133V426ZM196.933 426H147.733V428H196.933V426ZM147.733 426H98.4V428H147.733V426ZM98.4 426H49.2V428H98.4V426ZM49.2 426H0V428H49.2V426ZM1 427V170.8H-1V427H1Z" fill="#1F2B3E" mask="url(#path-1-inside-1_643_159)"/>
</g>
<defs>
<clipPath id="clip0_643_159">
<rect width="1920" height="427" fill="white"/>
</clipPath>
</defs>
</svg>
