<svg width="500" height="500" viewBox="0 0 500 500" fill="none" xmlns="http://www.w3.org/2000/svg">
<rect width="500" height="500" rx="73" fill="#0C1222"/>
<path fill-rule="evenodd" clip-rule="evenodd" d="M235.671 320.164C232.358 320.164 229.671 317.478 229.671 314.164V234.274H149C145.686 234.274 143 231.588 143 228.274V199.671C143 196.358 145.686 193.671 149 193.671H229.671V113C229.671 109.686 232.358 107 235.671 107H264.274C267.588 107 270.274 109.686 270.274 113V193.671H350.164C353.478 193.671 356.164 196.358 356.164 199.671V228.274C356.164 231.588 353.478 234.274 350.164 234.274H270.274V314.164C270.274 317.478 267.588 320.164 264.274 320.164H235.671ZM149 351.397C145.686 351.397 143 354.084 143 357.397V386C143 389.314 145.686 392 149 392H350.164C353.478 392 356.164 389.314 356.164 386V357.397C356.164 354.084 353.478 351.397 350.164 351.397H149Z" fill="#61A4F4"/>
</svg>
