<svg width="500" height="500" viewBox="0 0 500 500" fill="none" xmlns="http://www.w3.org/2000/svg">
<g clip-path="url(#clip0_662_2)">
<path d="M427 0H73C32.6832 0 0 32.6832 0 73V427C0 467.317 32.6832 500 73 500H427C467.317 500 500 467.317 500 427V73C500 32.6832 467.317 0 427 0Z" fill="#0B1120"/>
<path d="M189.059 123.345C163.666 135.032 146.909 153.822 146.909 174.897C146.909 188.768 154.041 201.612 166.157 212.106C159.958 225.598 156.065 240.746 155.098 256.844C164.235 257.142 172.917 259.078 180.708 263.059C202.797 274.348 213.169 298.623 211.417 327.39C215.438 328.363 219.539 329.173 223.704 329.823C224.179 320.92 224.145 312.043 223.441 303.196L233.341 302.407C234.105 311.988 234.12 321.54 233.584 331.062C237.847 331.466 242.161 331.705 246.51 331.796V301.921H256.44V331.74C260.601 331.607 264.78 331.339 268.963 330.936C268.434 321.456 268.453 311.946 269.213 302.408L279.113 303.197C278.41 312.014 278.374 320.859 278.845 329.733C282.728 329.164 286.604 328.482 290.463 327.691C288.621 298.794 298.987 274.389 321.152 263.061C328.942 259.078 337.624 257.142 346.76 256.844C345.781 240.526 341.795 225.185 335.45 211.554C347.183 201.162 354.073 188.526 354.073 174.897C354.073 153.822 337.316 135.032 311.923 123.347C318.861 132.148 323.132 142.694 323.132 153.829C323.132 176.507 306.387 196.124 282.199 205.438L278.936 197.841C284.86 195.482 290.219 192.424 294.812 188.829C300.18 184.629 304.485 179.751 307.519 174.403C291.656 160.945 272.104 153.003 250.929 153.003C229.492 153.003 209.716 161.138 193.749 174.903C196.764 180.056 200.97 184.76 206.169 188.829C211.308 192.85 217.406 196.201 224.181 198.652L220.926 206.23C195.59 197.271 177.85 177.172 177.85 153.829C177.85 142.694 182.121 132.148 189.059 123.347V123.345ZM194.525 220.633C194.554 220.631 194.578 220.635 194.592 220.652C204.378 233.057 222.189 241.742 242.997 243.582C239.866 254.047 228.654 261.927 215.007 261.927C198.953 261.927 185.701 250.991 185.701 237.746C185.702 231.124 188.998 224.997 194.262 220.654C194.306 220.704 194.437 220.639 194.524 220.632L194.525 220.633ZM307.008 220.634C307.037 220.632 307.062 220.637 307.082 220.655C312.347 224.998 315.644 231.125 315.644 237.747C315.644 250.991 302.392 261.927 286.336 261.927C272.69 261.927 261.479 254.049 258.347 243.583C279.155 241.742 296.966 233.057 306.752 220.654C306.811 220.699 306.923 220.638 307.008 220.634ZM250.902 244.091C253.891 258.658 258.303 273.225 268.391 287.792C257.617 290.678 244.574 290.781 233.413 287.792C242.961 273.225 247.673 258.658 250.902 244.091ZM210.349 337.347C209.106 345.528 206.941 353.975 203.84 362.514C208.509 365.563 213.425 368.169 218.54 370.29C220.468 360.076 222.014 349.902 222.967 339.766C218.705 339.118 214.494 338.315 210.349 337.348L210.349 337.347ZM291.551 337.602C287.576 338.401 283.582 339.093 279.58 339.668C280.524 349.747 282.054 359.863 283.963 370.018C288.848 367.948 293.547 365.433 298.02 362.514C294.951 354.064 292.799 345.703 291.551 337.602V337.602ZM269.713 340.851C265.283 341.276 260.855 341.554 256.441 341.69V376.59C262.628 376.184 268.666 375.1 274.494 373.397C272.423 362.59 270.744 351.741 269.713 340.851ZM232.831 340.977C231.794 351.889 230.105 362.759 228.026 373.588C233.992 375.277 240.174 376.321 246.51 376.655V341.744C241.918 341.653 237.352 341.402 232.831 340.977Z" fill="#3F8BF9"/>
<rect x="225.455" y="88" width="49.0909" height="324" rx="10" fill="#3F8BF9"/>
<rect x="88" y="274.545" width="49.0909" height="324" rx="10" transform="rotate(-90 88 274.545)" fill="#3F8BF9"/>
</g>
<defs>
<clipPath id="clip0_662_2">
<rect width="500" height="500" fill="white"/>
</clipPath>
</defs>
</svg>
