<svg width="500" height="500" viewBox="0 0 500 500" fill="none" xmlns="http://www.w3.org/2000/svg">
<rect width="500" height="500" rx="73" fill="#0C1222"/>
<path fill-rule="evenodd" clip-rule="evenodd" d="M232.429 332C229.115 332 226.429 329.314 226.429 326V232.476H132C128.686 232.476 126 229.79 126 226.476V191.429C126 188.115 128.686 185.429 132 185.429H226.429V91C226.429 87.6863 229.115 85 232.429 85H267.476C270.79 85 273.476 87.6863 273.476 91V185.429H367C370.314 185.429 373 188.115 373 191.429V226.476C373 229.79 370.314 232.476 367 232.476H273.476V326C273.476 329.314 270.79 332 267.476 332H232.429ZM132 368.19C128.686 368.19 126 370.877 126 374.19V409.238C126 412.552 128.686 415.238 132 415.238H367C370.314 415.238 373 412.552 373 409.238V374.19C373 370.877 370.314 368.19 367 368.19H132Z" fill="white"/>
</svg>
